<svg width="273" height="187" viewBox="0 0 273 187" fill="none" xmlns="http://www.w3.org/2000/svg">
<mask id="mask0_50_14" style="mask-type:alpha" maskUnits="userSpaceOnUse" x="18" y="23" width="235" height="137">
<path d="M204.757 60.3247C201.773 58.4525 198.522 56.7905 195.053 55.3636L186.734 51.9396C179.022 48.7666 170.542 46.5684 161.697 45.4494L158.723 45.0759C142.733 43.0519 127.312 39.3024 113.035 33.9671C112.391 32.0101 110.969 30.2137 108.928 28.7768C106.886 27.3399 104.304 26.3187 101.467 25.8264C98.6308 25.3341 95.651 25.39 92.8581 25.9877C90.0652 26.5855 87.5682 27.7018 85.6439 29.213C83.7196 30.7242 82.4432 32.5712 81.9561 34.5494C81.469 36.5275 81.7903 38.5595 82.8843 40.4201C83.9783 42.2807 85.8024 43.8972 88.1543 45.0905C90.5062 46.2839 93.2941 47.0074 96.2089 47.1809C105.606 53.484 113.546 60.7333 119.754 68.6786" stroke="white" stroke-width="4" stroke-linecap="round" stroke-linejoin="round"/>
<path d="M64.7476 97.367C63.2607 98.4564 45.9808 111.491 45.9808 124.526C45.9808 138.145 54.8222 143.981 63.0054 147.872C71.1885 151.763 84.1158 155.654 94.8413 155.654C105.567 155.654 162.315 159.545 187.852 155.654C213.389 151.763 216.226 147.872 227.576 140.09C233.71 135.884 238.256 129.966 241.139 125.421C243.902 121.012 246.132 116.454 247.807 111.795C249.85 106.207 251.91 98.1841 250.275 91.4526C247.438 79.7797 238.926 71.9977 210.551 62.2702C184.424 53.3131 161.481 57.5543 158.014 58.2819C157.707 58.3475 157.402 58.4176 157.1 58.492C152.56 59.5932 115.872 68.593 100.295 75.8887C84.3939 83.336 66.4614 96.1296 64.9518 97.2152C64.8832 97.2641 64.8151 97.3134 64.7476 97.3631V97.367Z" stroke="white" stroke-width="4" stroke-linecap="round" stroke-linejoin="round"/>
<path d="M35.2157 77.8731C32.3008 77.6996 29.5129 76.9761 27.161 75.7827C24.8091 74.5894 22.985 72.9728 21.891 71.1122C20.797 69.2516 20.4757 67.2197 20.9628 65.2415C21.4499 63.2634 22.7263 61.4164 24.6506 59.9052C26.5749 58.394 29.0719 57.2777 31.8648 56.6799C34.6578 56.0821 37.6375 56.0263 40.4739 56.5186C43.3103 57.0109 45.8925 58.0321 47.9343 59.469C49.976 60.9058 51.3977 62.7023 52.0416 64.6592C66.3192 69.9933 81.7401 73.7415 97.7298 75.7641L100.703 76.1416C109.55 77.2583 118.029 79.4567 125.741 82.6317L134.06 86.0519C139.619 88.3399 144.605 91.2263 148.826 94.6004L151.13 96.437C154.564 99.1811 157.113 102.392 158.611 105.858C160.11 109.325 160.523 112.97 159.824 116.553L159.665 117.374C158.704 122.313 155.447 126.907 150.375 130.475L147.754 132.316C143.489 135.315 138.23 137.563 132.425 138.866C126.619 140.17 120.44 140.491 114.414 139.802C104.955 138.721 96.1976 135.695 89.3026 131.125L85.1089 128.347C81.7367 126.113 78.8131 123.581 76.4151 120.818L64.0893 106.608L60.4914 101.666C54.061 92.8229 45.5178 84.7794 35.2157 77.8692V77.8731Z" fill="#555555" stroke="white" stroke-width="4" stroke-linecap="round" stroke-linejoin="round"/>
</mask>
<g mask="url(#mask0_50_14)">
<path d="M0.582031 0.0142365H272.975V186.782H0.582031V0.0142365Z" fill="white" fill-opacity="1"/>
</g>
</svg>