<svg width="190" height="190" viewBox="0 0 190 190" fill="none" xmlns="http://www.w3.org/2000/svg">
<g clip-path="url(#clip0_50_40)">
<path d="M137.758 55.7087L146.043 63.9943L77.0888 132.949L43.486 99.3463L51.7716 91.0606L77.0888 116.378L137.758 55.7087ZM94.7648 0.93161C103.419 0.93161 111.766 2.03636 119.806 4.24585C127.846 6.45535 135.364 9.61616 142.361 13.7283C149.358 17.8404 155.71 22.7504 161.418 28.4583C167.126 34.1661 172.036 40.5491 176.148 47.6072C180.26 54.6653 183.421 62.1838 185.63 70.1625C187.84 78.1412 188.975 86.4882 189.037 95.2035C189.037 103.857 187.932 112.204 185.722 120.244C183.513 128.285 180.352 135.803 176.24 142.8C172.128 149.796 167.218 156.149 161.51 161.857C155.802 167.564 149.419 172.474 142.361 176.587C135.303 180.699 127.784 183.859 119.806 186.069C111.827 188.278 103.48 189.414 94.7648 189.475C86.1109 189.475 77.7639 188.371 69.7238 186.161C61.6837 183.952 54.1653 180.791 47.1685 176.679C40.1718 172.567 33.8195 167.657 28.1116 161.949C22.4038 156.241 17.4938 149.858 13.3816 142.8C9.26953 135.742 6.10872 128.254 3.89923 120.336C1.68973 112.419 0.554295 104.041 0.49292 95.2035C0.49292 86.5496 1.59767 78.2026 3.80716 70.1625C6.01666 62.1224 9.17747 54.604 13.2896 47.6072C17.4017 40.6105 22.3117 34.2582 28.0196 28.5503C33.7274 22.8424 40.1104 17.9325 47.1685 13.8203C54.2266 9.70822 61.7144 6.54741 69.6317 4.33792C77.5491 2.12842 85.9268 0.992985 94.7648 0.93161ZM94.7648 177.691C102.314 177.691 109.587 176.709 116.584 174.745C123.58 172.781 130.147 170.019 136.285 166.46C142.422 162.9 148.007 158.573 153.04 153.479C158.073 148.385 162.369 142.83 165.929 136.816C169.489 130.801 172.281 124.234 174.307 117.114C176.332 109.995 177.314 102.691 177.253 95.2035C177.253 87.6543 176.271 80.3814 174.307 73.3847C172.343 66.3879 169.581 59.8208 166.021 53.6833C162.461 47.5458 158.134 41.9607 153.04 36.928C147.946 31.8952 142.392 27.599 136.377 24.0393C130.362 20.4795 123.795 17.687 116.676 15.6616C109.556 13.6362 102.253 12.6542 94.7648 12.7156C87.2157 12.7156 79.9427 13.6976 72.946 15.6616C65.9492 17.6256 59.3821 20.3875 53.2446 23.9472C47.1072 27.5069 41.522 31.8339 36.4893 36.928C31.4566 42.0221 27.1603 47.5765 23.6006 53.5913C20.0408 59.606 17.2483 66.1731 15.2229 73.2926C13.1975 80.4121 12.2155 87.7157 12.2769 95.2035C12.2769 102.753 13.2589 110.025 15.2229 117.022C17.1869 124.019 19.9488 130.586 23.5085 136.724C27.0683 142.861 31.3952 148.446 36.4893 153.479C41.5834 158.512 47.1378 162.808 53.1526 166.368C59.1673 169.927 65.7344 172.72 72.8539 174.745C79.9734 176.771 87.277 177.753 94.7648 177.691Z" fill="white" fill-opacity="1"/>
</g>
<defs>
<clipPath id="clip0_50_40">
<rect width="188.544" height="188.544" fill="white" transform="translate(0.49292 0.93161)"/>
</clipPath>
</defs>
</svg>