<svg width="199" height="199" viewBox="0 0 199 199" fill="none" xmlns="http://www.w3.org/2000/svg">
<path d="M163.901 7.62864C154.378 7.6788 143.862 13.5922 135.311 21.8699C136.031 22.2697 136.755 22.6687 137.482 23.0881C140.464 24.8059 143.388 26.6237 146.248 28.5385C155.969 24.8407 167.653 22.9569 186.162 27.3925C181.517 13.0883 173.183 7.58041 163.901 7.62864ZM92.5752 16.0946L103.754 52.4628C108.604 54.9489 113.334 57.6373 117.959 60.5054L103.826 17.2997C100.556 16.6514 97.399 16.2725 94.3483 16.1421C93.7541 16.117 93.1617 16.1008 92.5752 16.0946ZM85.1596 16.5283C84.5433 16.6058 83.9284 16.6942 83.3151 16.7934C79.9433 17.3487 81.6962 16.0905 78.5 17.2997L90.5 46C95.7197 47.8209 89.8498 45.937 94.8908 48.2062L85.1596 16.5283ZM112.122 19.4582L127.618 66.8723C133.761 71.1647 139.703 75.7966 145.464 80.7273L126.58 25.4149C121.529 22.8963 116.715 20.9226 112.122 19.4582ZM75.5 19.4582C69.8443 22.49 77.6521 33.2426 72.5 38.1613C79.4878 39.4247 80.1954 43.9698 87 46L75.5 19.4582ZM135.95 30.5523L156.509 90.7363C160.676 94.7424 164.737 98.9117 168.712 103.228C168.865 102.775 169.002 102.329 169.146 101.878L147.393 38.1613C143.982 35.603 140.175 33.074 135.95 30.5523ZM87 55.5C58 103.228 28.4831 86.3781 23.5 95C13.5 123.536 13.5 136.5 26.5689 164.256L26.5442 164.232C26.8343 173.258 23.6127 181.839 19.6711 190.314C30.1929 185.61 40.8541 183.44 51.5774 182.295L51.3968 182.162C85.3128 189.498 133.537 163.093 151.988 131.167C157.216 122.123 159.939 113.363 160.585 105.036C130.789 73.5601 125.95 70.4918 87 55.5ZM158.283 47.7474L172.222 88.5531C173.24 80.6146 172.592 73.1743 170.027 66.0762C167.767 59.8244 163.963 53.7246 158.283 47.7474Z" fill="white" fill-opacity="1"/>
</svg>